<svg width="32" height="32" viewBox="0 0 32 32" fill="none" xmlns="http://www.w3.org/2000/svg">
<path fill-rule="evenodd" clip-rule="evenodd" d="M3.46515 14.537C3.44406 13.0698 3.71484 11.613 4.26174 10.2514C4.80865 8.88971 5.62076 7.65034 6.65087 6.60532C7.68099 5.5603 8.90856 4.73046 10.2622 4.16405C11.6159 3.59764 13.0686 3.30596 14.536 3.30596C16.0034 3.30596 17.4561 3.59764 18.8098 4.16405C20.1635 4.73046 21.391 5.5603 22.4211 6.60532C23.4512 7.65034 24.2634 8.88971 24.8103 10.2514C25.3572 11.613 25.6279 13.0698 25.6069 14.537C25.5651 17.4457 24.3803 20.221 22.3086 22.2631C20.237 24.3052 17.4449 25.45 14.536 25.45C11.6271 25.45 8.83501 24.3052 6.76336 22.2631C4.69172 20.221 3.50694 17.4457 3.46515 14.537ZM14.5349 0.0341799C12.247 0.0338355 9.99156 0.574843 7.95282 1.61299C5.91407 2.65113 4.1499 4.15695 2.80449 6.00738C1.45907 7.8578 0.570596 10.0003 0.211668 12.2598C-0.14726 14.5193 0.0335492 16.8317 0.739317 19.008C1.44509 21.1842 2.65578 23.1626 4.27246 24.7814C5.88915 26.4003 7.86593 27.6136 10.0413 28.3222C12.2166 29.0308 14.5287 29.2147 16.7887 28.8588C19.0487 28.5028 21.1924 27.6172 23.0446 26.2742L28.0617 31.2913C28.4903 31.7202 29.0717 31.9613 29.6781 31.9615C30.2844 31.9617 30.866 31.7211 31.2949 31.2925C31.7238 30.8639 31.9648 30.2825 31.965 29.6761C31.9653 29.0698 31.7246 28.4882 31.296 28.0593L26.2766 23.0422C27.8438 20.8781 28.7825 18.3232 28.9893 15.6593C29.1961 12.9954 28.6629 10.3261 27.4484 7.94615C26.2339 5.56618 24.3855 3.56804 22.1071 2.17227C19.8288 0.776495 17.2091 0.0373673 14.5371 0.0364656L14.5349 0.0341799ZM12.832 9.23647C12.9647 9.36913 13.07 9.52663 13.1418 9.69997C13.2136 9.87332 13.2506 10.0591 13.2506 10.2468C13.2506 10.4344 13.2136 10.6202 13.1418 10.7935C13.07 10.9669 12.9647 11.1244 12.832 11.257L9.27086 14.8205L12.832 18.3816C13.0999 18.6496 13.2505 19.013 13.2505 19.3919C13.2505 19.7708 13.0999 20.1342 12.832 20.4022C12.5641 20.6701 12.2006 20.8207 11.8217 20.8207C11.4428 20.8207 11.0794 20.6701 10.8114 20.4022L6.24 15.8308C6.10731 15.6981 6.00205 15.5406 5.93023 15.3672C5.85841 15.1939 5.82145 15.0081 5.82145 14.8205C5.82145 14.6328 5.85841 14.447 5.93023 14.2737C6.00205 14.1003 6.10731 13.9428 6.24 13.8102L10.8114 9.23875C10.9441 9.10606 11.1016 9.0008 11.2749 8.92898C11.4483 8.85716 11.6341 8.8202 11.8217 8.8202C12.0094 8.8202 12.1951 8.85716 12.3685 8.92898C12.5418 9.0008 12.6993 9.10377 12.832 9.23647ZM18.5463 9.23647C18.2783 8.96852 17.9149 8.81799 17.536 8.81799C17.1571 8.81799 16.7937 8.96852 16.5257 9.23647C16.2578 9.50441 16.1072 9.86782 16.1072 10.2468C16.1072 10.6257 16.2578 10.9891 16.5257 11.257L20.0869 14.8182L16.5257 18.3816C16.2578 18.6496 16.1072 19.013 16.1072 19.3919C16.1072 19.7708 16.2578 20.1342 16.5257 20.4022C16.7937 20.6701 17.1571 20.8207 17.536 20.8207C17.9149 20.8207 18.2783 20.6701 18.5463 20.4022L23.1177 15.8308C23.2504 15.6981 23.3557 15.5406 23.4275 15.3672C23.4993 15.1939 23.5363 15.0081 23.5363 14.8205C23.5363 14.6328 23.4993 14.447 23.4275 14.2737C23.3557 14.1003 23.2504 13.9428 23.1177 13.8102L18.5463 9.23647Z" fill="#FFC300"/>
</svg>
