<svg width="48" height="34" viewBox="0 0 48 34" fill="none" xmlns="http://www.w3.org/2000/svg">
<g clip-path="url(#clip0_3_474)">
<rect width="47.6" height="34" rx="6.8" fill="#1A47B8"/>
<path fill-rule="evenodd" clip-rule="evenodd" d="M5.06367 0H0V5.66667L42.5088 34H47.6V28.3333L5.06367 0Z" fill="white"/>
<path d="M1.68889 0L47.6 30.6803V34H45.9507L0 3.28793V0H1.68889Z" fill="#F93939"/>
<path fill-rule="evenodd" clip-rule="evenodd" d="M43.0668 3.05176e-05H47.6001V5.6667C47.6001 5.6667 18.1557 24.5436 4.53346 34H0.00012207V28.3334L43.0668 3.05176e-05Z" fill="white"/>
<path d="M47.6 0H46.0627L0 30.7067V34H1.68889L47.6 3.31276V0Z" fill="#F93939"/>
<path fill-rule="evenodd" clip-rule="evenodd" d="M17.3107 0H30.3289V10.4875H47.6V23.5056H30.3289V34H17.3107V23.5056H0V10.4875H17.3107V0Z" fill="white"/>
<path fill-rule="evenodd" clip-rule="evenodd" d="M20.0421 0H27.5579V13.0769H47.6V20.9231H27.5579V34H20.0421V20.9231H0V13.0769H20.0421V0Z" fill="#F93939"/>
</g>
<defs>
<clipPath id="clip0_3_474">
<rect width="47.6" height="34" rx="6.8" fill="white"/>
</clipPath>
</defs>
</svg>
