<svg width="102" height="84" viewBox="0 0 102 84" fill="none" xmlns="http://www.w3.org/2000/svg">
<path d="M0 37V46.25C0 46.25 9.25 46.25 9.25 64.75V69.375C9.25 73.0549 10.7118 76.584 13.3139 79.1861C15.916 81.7882 19.4451 83.25 23.125 83.25H78.625C82.3049 83.25 85.834 81.7882 88.4361 79.1861C91.0382 76.584 92.5 73.0549 92.5 69.375V64.75C92.5 46.25 101.75 46.25 101.75 46.25V37C101.75 37 92.5 37 92.5 18.5V13.875C92.5 10.1951 91.0382 6.66596 88.4361 4.06389C85.834 1.46183 82.3049 0 78.625 0H23.125C19.4451 0 15.916 1.46183 13.3139 4.06389C10.7118 6.66596 9.25 10.1951 9.25 13.875V18.5C9.25 37 0 37 0 37ZM90.9922 41.625C90.8535 41.7545 90.7178 41.8871 90.5852 42.0228C85.9232 46.6801 83.25 54.0755 83.25 64.75V69.375C83.25 70.6016 82.7627 71.778 81.8954 72.6454C81.028 73.5127 79.8516 74 78.625 74H23.125C21.8984 74 20.722 73.5127 19.8546 72.6454C18.9873 71.778 18.5 70.6016 18.5 69.375V64.75C18.5 54.0755 15.8267 46.6801 11.1647 42.0228L10.7577 41.625C10.8965 41.4955 11.0322 41.3629 11.1647 41.2272C15.8267 36.5699 18.5 29.1745 18.5 18.5V13.875C18.5 12.6484 18.9873 11.472 19.8546 10.6046C20.722 9.73728 21.8984 9.25 23.125 9.25H78.625C79.8516 9.25 81.028 9.73728 81.8954 10.6046C82.7627 11.472 83.25 12.6484 83.25 13.875V18.5C83.25 29.1745 85.9232 36.5699 90.5852 41.2272L90.9922 41.625ZM34.6875 18.5V64.75H57.8125C60.8147 64.7513 63.7363 63.7787 66.1388 61.9784C68.5413 60.1781 70.295 57.647 71.1368 54.7653C71.9785 51.8835 71.8629 48.8064 70.8072 45.996C69.7515 43.1855 67.8127 40.7933 65.2819 39.1784C66.4698 37.067 67.0841 34.6813 67.0638 32.2588C67.0435 29.8362 66.3893 27.4612 65.1662 25.37C63.9431 23.2788 62.1937 21.5442 60.0922 20.339C57.9906 19.1337 55.6101 18.4997 53.1875 18.5H34.6875ZM43.9375 37V27.75H53.1875C54.4141 27.75 55.5905 28.2373 56.4579 29.1046C57.3252 29.972 57.8125 31.1484 57.8125 32.375C57.8125 33.6016 57.3252 34.778 56.4579 35.6454C55.5905 36.5127 54.4141 37 53.1875 37H43.9375ZM43.9375 46.25H57.8125C59.0391 46.25 60.2155 46.7373 61.0829 47.6046C61.9502 48.472 62.4375 49.6484 62.4375 50.875C62.4375 52.1016 61.9502 53.278 61.0829 54.1454C60.2155 55.0127 59.0391 55.5 57.8125 55.5H43.9375V46.25Z" fill="#7512F6"/>
</svg>
