<svg width="145" height="49" viewBox="0 0 145 49" fill="none" xmlns="http://www.w3.org/2000/svg">
<path d="M80.4167 36.1875V28.1458H60.3125C58.034 28.1458 56.1255 27.3738 54.5868 25.8298C53.0482 24.2858 52.2762 22.3773 52.2708 20.1042V8.04167C52.2708 5.76319 53.0428 3.85464 54.5868 2.316C56.1308 0.777362 58.0394 0.00536111 60.3125 0H86.4479C88.1903 0 89.6324 0.570961 90.7743 1.71288C91.9162 2.85479 92.4845 4.29425 92.4792 6.03125C92.4738 7.76825 91.9028 9.21039 90.7663 10.3577C89.6297 11.5049 88.1903 12.0732 86.4479 12.0625H64.3333V20.1042H84.4375C86.716 20.1042 88.6272 20.8762 90.1712 22.4202C91.7152 23.9642 92.4845 25.8727 92.4792 28.1458V40.2083C92.4792 42.4868 91.7072 44.398 90.1632 45.942C88.6192 47.486 86.7106 48.2554 84.4375 48.25H58.3021C56.5597 48.25 55.1203 47.679 53.9837 46.5371C52.8471 45.3952 52.2762 43.9557 52.2708 42.2187C52.2655 40.4817 52.8364 39.0423 53.9837 37.9004C55.131 36.7585 56.5704 36.1875 58.3021 36.1875H80.4167ZM132.687 36.1875V28.1458H112.583C110.305 28.1458 108.396 27.3738 106.858 25.8298C105.319 24.2858 104.547 22.3773 104.542 20.1042V8.04167C104.542 5.76319 105.314 3.85464 106.858 2.316C108.402 0.777362 110.31 0.00536111 112.583 0H138.719C140.461 0 141.903 0.570961 143.045 1.71288C144.187 2.85479 144.755 4.29425 144.75 6.03125C144.745 7.76825 144.174 9.21039 143.037 10.3577C141.901 11.5049 140.461 12.0732 138.719 12.0625H116.604V20.1042H136.708C138.987 20.1042 140.898 20.8762 142.442 22.4202C143.986 23.9642 144.755 25.8727 144.75 28.1458V40.2083C144.75 42.4868 143.978 44.398 142.434 45.942C140.89 47.486 138.981 48.2554 136.708 48.25H110.573C108.831 48.25 107.391 47.679 106.255 46.5371C105.118 45.3952 104.547 43.9557 104.542 42.2187C104.536 40.4817 105.107 39.0423 106.255 37.9004C107.402 36.7585 108.841 36.1875 110.573 36.1875H132.687ZM8.04167 48.25C5.76319 48.25 3.85464 47.478 2.316 45.934C0.777362 44.39 0.00536111 42.4814 0 40.2083V8.04167C0 5.76319 0.772001 3.85464 2.316 2.316C3.86 0.777362 5.76856 0.00536111 8.04167 0H32.1667C34.4451 0 36.3564 0.772001 37.9004 2.316C39.4444 3.86 40.2137 5.76856 40.2083 8.04167V12.2635C40.2083 13.8719 39.6052 15.247 38.399 16.3889C37.1927 17.5308 35.7854 18.0991 34.1771 18.0937C32.4347 18.0937 30.9953 17.5228 29.8587 16.3809C28.7221 15.239 28.1512 13.7995 28.1458 12.0625H12.0625V36.1875H28.1458C28.1458 34.5792 28.7168 33.1719 29.8587 31.9656C31.0006 30.7594 32.4401 30.1562 34.1771 30.1562C35.7854 30.1562 37.1927 30.7594 38.399 31.9656C39.6052 33.1719 40.2083 34.5792 40.2083 36.1875V40.2083C40.2083 42.4868 39.4363 44.398 37.8923 45.942C36.3483 47.486 34.4398 48.2554 32.1667 48.25H8.04167Z" fill="#33A9DC"/>
</svg>
