<svg width="107" height="108" viewBox="0 0 107 108" fill="none" xmlns="http://www.w3.org/2000/svg">
<path d="M50.1563 76.9062H36.7813C34.1359 76.9062 31.55 77.6907 29.3505 79.1603C27.151 80.63 25.4367 82.7189 24.4244 85.1629C23.412 87.6068 23.1472 90.2961 23.6633 92.8906C24.1793 95.4851 25.4532 97.8683 27.3237 99.7388C29.1942 101.609 31.5774 102.883 34.1719 103.399C36.7664 103.915 39.4557 103.65 41.8996 102.638C44.3436 101.626 46.4325 99.9115 47.9022 97.712C49.3718 95.5125 50.1563 92.9266 50.1563 90.2812V76.9062Z" stroke="#A6DA95" stroke-width="7" stroke-linecap="round" stroke-linejoin="round"/>
<path d="M50.1562 70.2188V43.4688H36.7812C33.234 43.4688 29.832 44.8779 27.3237 47.3862C24.8154 49.8945 23.4063 53.2965 23.4062 56.8438C23.4063 60.391 24.8154 63.793 27.3237 66.3013C29.832 68.8096 33.234 70.2188 36.7812 70.2188H50.1562Z" stroke="#C6A0F6" stroke-width="7" stroke-linecap="round" stroke-linejoin="round"/>
<path d="M50.1562 36.7812V10.0312H36.7812C33.234 10.0313 29.832 11.4404 27.3237 13.9487C24.8154 16.457 23.4063 19.859 23.4062 23.4062C23.4063 26.9535 24.8154 30.3555 27.3237 32.8638C29.832 35.3721 33.234 36.7812 36.7812 36.7812H50.1562Z" stroke="#ED8796" stroke-width="7" stroke-linecap="round" stroke-linejoin="round"/>
<path d="M70.2188 36.7812C73.766 36.7812 77.168 35.3721 79.6763 32.8638C82.1846 30.3555 83.5938 26.9535 83.5938 23.4062C83.5938 19.859 82.1846 16.457 79.6763 13.9487C77.168 11.4404 73.766 10.0313 70.2188 10.0312H56.8438V36.7812H70.2188Z" stroke="#F5A97F" stroke-width="7" stroke-linecap="round" stroke-linejoin="round"/>
<path d="M83.5938 56.8438C83.5938 60.391 82.1846 63.793 79.6763 66.3013C77.168 68.8096 73.766 70.2188 70.2188 70.2188C66.6715 70.2188 63.2695 68.8096 60.7612 66.3013C58.2529 63.793 56.8438 60.391 56.8438 56.8438C56.8438 53.2965 58.2529 49.8945 60.7612 47.3862C63.2695 44.8779 66.6715 43.4688 70.2188 43.4688C73.766 43.4688 77.168 44.8779 79.6763 47.3862C82.1846 49.8945 83.5938 53.2965 83.5938 56.8438Z" stroke="#91D7E3" stroke-width="7" stroke-linecap="round" stroke-linejoin="round"/>
</svg>
