<svg width="52" height="66" viewBox="0 0 52 66" fill="none" xmlns="http://www.w3.org/2000/svg">
<path d="M46.2177 22.6719C44.7548 20.6466 41.3998 16.4822 36.2373 10.2924C33.9975 7.61041 32.0762 5.33152 31.1334 4.2132L29.807 2.65275L29.2446 1.98631L28.939 1.62871L28.8805 1.54094L28.8545 1.52793L27.5541 0L25.8994 1.32313C21.6726 4.71056 18.2626 9.00611 15.9223 13.8912C14.5617 16.605 13.6087 19.5046 13.094 22.4964C12.964 23.1531 12.8556 23.8195 12.7689 24.4957C12.1449 24.4431 11.5193 24.4106 10.8931 24.3982C8.80701 24.3248 6.72215 24.576 4.71312 25.1426L3.85163 25.3832L3.4095 26.1569C1.32741 29.8116 0.162799 33.9168 0.0155387 38.1203C-0.169001 43.4574 1.2939 48.7219 4.20549 53.1987C7.11708 57.6754 11.3362 61.1473 16.2897 63.1427L16.9301 63.3995L17.1252 63.4645H17.1317C19.6919 64.3912 22.3817 64.9101 25.1029 65.0022C25.4128 65.0131 25.7228 65.0185 26.0327 65.0185C29.4668 65.0241 32.8671 64.3409 36.0325 63.0094L36.0553 63.0192L36.9038 62.6291C41.2752 60.6159 45.0014 57.4278 47.6666 53.4205C50.3318 49.4132 51.8313 44.7442 51.9978 39.9344C52.0762 33.6925 50.0389 27.608 46.2177 22.6719ZM18.9749 57.9315L18.3508 57.6909L18.185 57.6259C14.3215 56.0298 11.0379 53.2915 8.77371 49.7776C6.50956 46.2637 5.37296 42.142 5.5161 37.9643C5.61122 34.9408 6.38565 31.9775 7.782 29.2941C8.59374 29.1141 9.41909 29.0021 10.2494 28.9592L10.4608 28.9527C10.8703 28.9431 11.28 28.9431 11.6896 28.9527C12.0407 28.969 12.3886 29.021 12.7364 29.0633C13.034 33.5362 14.0414 37.9333 15.7208 42.0897C17.5117 46.5425 20.2571 50.5484 23.7635 53.8256C22.3853 55.4296 20.7705 56.8142 18.9749 57.9315ZM20.116 40.0969C18.8087 36.8454 17.9692 33.425 17.6225 29.9378C18.7061 30.3171 19.7424 30.82 20.7109 31.4364C23.9269 33.648 26.1815 36.9997 27.0177 40.8121C27.1941 41.506 27.3244 42.2108 27.4078 42.922C27.6419 45.1578 27.3203 47.4169 26.4716 49.4986C23.7105 46.8507 21.5441 43.6459 20.116 40.0969ZM25.7759 59.1408C26.4096 58.5005 27.0097 57.8278 27.5736 57.1252C28.3311 57.7007 29.1503 58.2045 29.9468 58.7344C28.574 59.0122 27.1764 59.1483 25.7759 59.1408ZM43.4349 49.4856C41.6448 52.3576 39.1751 54.7447 36.2438 56.436C34.1322 55.3689 32.1186 54.1178 30.2264 52.6975C32.0847 48.6194 32.4406 44.0155 31.2309 39.7003C30.1334 34.838 27.2219 30.5778 23.0906 27.7889C21.4029 26.7164 19.5626 25.9053 17.6323 25.3832C17.6848 24.8437 17.7542 24.3059 17.8404 23.7708C18.1827 21.9961 18.6888 20.257 19.352 18.5758C19.6056 17.9299 19.8798 17.2971 20.1745 16.6772L20.1875 16.6545C20.6427 15.7377 21.1498 14.8112 21.7512 13.8197L21.9885 13.4296H21.982C23.3802 11.2451 25.0566 9.25186 26.969 7.49988L27.7069 8.37438C29.4299 10.416 31.0554 12.347 32.528 14.1123C35.844 18.0881 40.1417 23.3059 41.7997 25.6075C44.8799 29.5411 46.5369 34.402 46.5005 39.398C46.377 42.9715 45.3201 46.4472 43.4349 49.4856Z" fill="#FF9100"/>
</svg>
