<svg width="193" height="49" viewBox="0 0 193 49" fill="none" xmlns="http://www.w3.org/2000/svg">
<path d="M0 42.2188V6.03129C0 4.28893 0.570958 2.84947 1.71287 1.71291C2.85479 0.576359 4.29425 0.00539851 6.03125 3.74029e-05C7.76825 -0.00532371 9.21039 0.565637 10.3577 1.71291C11.5049 2.86019 12.0732 4.29965 12.0625 6.03129V16.0834H28.1458V6.03129C28.1458 4.28893 28.7168 2.84947 29.8587 1.71291C31.0006 0.576359 32.4401 0.00539851 34.1771 3.74029e-05C35.9141 -0.00532371 37.3562 0.565637 38.5035 1.71291C39.6508 2.86019 40.2191 4.29965 40.2083 6.03129V42.2188C40.2083 43.9611 39.6374 45.4033 38.4955 46.5452C37.3535 47.6871 35.9141 48.2554 34.1771 48.25C32.4401 48.2447 31.0006 47.6737 29.8587 46.5372C28.7168 45.4006 28.1458 43.9611 28.1458 42.2188V28.1459H12.0625V42.2188C12.0625 43.9611 11.4915 45.4033 10.3496 46.5452C9.20771 47.6871 7.76825 48.2554 6.03125 48.25C4.29425 48.2447 2.85479 47.6737 1.71287 46.5372C0.570958 45.4006 0 43.9611 0 42.2188ZM62.3229 42.2188V12.0625H54.2812C52.5389 12.0625 51.0994 11.4916 49.9629 10.3497C48.8263 9.20774 48.2554 7.76829 48.25 6.03129C48.2446 4.29429 48.8156 2.85483 49.9629 1.71291C51.1101 0.570998 52.5496 3.74029e-05 54.2812 3.74029e-05H82.4271C84.1694 3.74029e-05 85.6116 0.570998 86.7535 1.71291C87.8954 2.85483 88.4637 4.29429 88.4583 6.03129C88.453 7.76829 87.882 9.21043 86.7455 10.3577C85.6089 11.505 84.1694 12.0733 82.4271 12.0625H74.3854V42.2188C74.3854 43.9611 73.8145 45.4033 72.6725 46.5452C71.5306 47.6871 70.0912 48.2554 68.3542 48.25C66.6172 48.2447 65.1777 47.6737 64.0358 46.5372C62.8939 45.4006 62.3229 43.9611 62.3229 42.2188ZM96.5 42.2188V8.0417C96.5 5.76323 97.272 3.85468 98.816 2.31604C100.36 0.777399 102.269 0.00539851 104.542 3.74029e-05H140.729C143.008 3.74029e-05 144.919 0.772038 146.463 2.31604C148.007 3.86004 148.776 5.76859 148.771 8.0417V42.2188C148.771 43.9611 148.2 45.4033 147.058 46.5452C145.916 47.6871 144.477 48.2554 142.74 48.25C141.003 48.2447 139.563 47.6737 138.421 46.5372C137.279 45.4006 136.708 43.9611 136.708 42.2188V12.0625H128.667V34.1771C128.667 35.9195 128.096 37.3616 126.954 38.5035C125.812 39.6455 124.372 40.2137 122.635 40.2084C120.898 40.203 119.459 39.632 118.317 38.4955C117.175 37.3589 116.604 35.9195 116.604 34.1771V12.0625H108.562V42.2188C108.562 43.9611 107.992 45.4033 106.85 46.5452C105.708 47.6871 104.268 48.2554 102.531 48.25C100.794 48.2447 99.3548 47.6737 98.2129 46.5372C97.071 45.4006 96.5 43.9611 96.5 42.2188ZM166.865 48.25C165.122 48.25 163.683 47.6791 162.546 46.5372C161.41 45.3952 160.839 43.9558 160.833 42.2188V6.03129C160.833 4.28893 161.404 2.84947 162.546 1.71291C163.688 0.576359 165.128 0.00539851 166.865 3.74029e-05C168.602 -0.00532371 170.044 0.565637 171.191 1.71291C172.338 2.86019 172.907 4.29965 172.896 6.03129V36.1875H186.969C188.711 36.1875 190.153 36.7585 191.295 37.9004C192.437 39.0423 193.005 40.4818 193 42.2188C192.995 43.9558 192.424 45.3979 191.287 46.5452C190.151 47.6925 188.711 48.2608 186.969 48.25H166.865Z" fill="#F16529"/>
</svg>
