<svg width="119" height="119" viewBox="0 0 119 119" fill="none" xmlns="http://www.w3.org/2000/svg">
<path d="M59.5 68.7002C64.6345 68.7002 68.7969 64.5378 68.7969 59.4033C68.7969 54.2688 64.6345 50.1064 59.5 50.1064C54.3655 50.1064 50.2031 54.2688 50.2031 59.4033C50.2031 64.5378 54.3655 68.7002 59.5 68.7002Z" fill="#00D8FF"/>
<path d="M59.5 80.7192C48.3257 80.9886 37.1795 79.4823 26.4775 76.2567C21.5339 74.6896 16.923 72.2209 12.878 68.9754C11.334 67.8672 10.0482 66.4378 9.109 64.7855C8.16985 63.1331 7.59961 61.297 7.4375 59.4033C7.4375 53.2562 14.1907 47.2319 25.5032 43.29C36.4918 39.8 47.9718 38.1073 59.5 38.2771C70.8744 38.1199 82.2009 39.782 93.0506 43.2007C97.8109 44.7203 102.265 47.0695 106.207 50.1399C107.723 51.1986 108.988 52.5768 109.913 54.1773C110.838 55.7778 111.401 57.5617 111.562 59.4033C111.562 65.7922 104.013 72.2665 91.8531 76.2902C81.3585 79.4116 70.4474 80.9053 59.5 80.7192ZM59.5 42.7247C48.4708 42.5806 37.4888 44.1898 26.9647 47.4922C16.5522 51.1254 11.8851 56.0937 11.8851 59.3922C11.8851 62.8432 16.9017 68.2688 27.9167 72.0359C38.1545 75.1077 48.8145 76.5373 59.5 76.2716C69.9735 76.4589 80.414 75.0417 90.4586 72.0694C101.894 68.28 107.1 62.8469 107.1 59.4033C106.912 58.2218 106.481 57.0921 105.834 56.0854C105.188 55.0786 104.34 54.2166 103.344 53.5537C99.8175 50.8288 95.8383 48.7467 91.5891 47.4029C81.2096 44.1468 70.3771 42.5675 59.5 42.7247Z" fill="#00D8FF"/>
<path d="M38.3775 105.772C36.6427 105.812 34.9285 105.391 33.4093 104.553C28.084 101.481 26.2395 92.6229 28.4745 80.8531C30.9415 69.5902 35.211 58.7996 41.1182 48.8979C46.6632 38.9663 53.7601 29.985 62.1403 22.2939C65.8348 18.9289 70.0951 16.2435 74.7246 14.3618C76.4 13.5792 78.2267 13.1736 80.0759 13.1736C81.9251 13.1736 83.7517 13.5792 85.4271 14.3618C90.9644 17.5525 92.7977 27.3254 90.2132 39.8688C87.6732 50.5215 83.5144 60.7216 77.8818 70.1133C72.5324 79.9279 65.6589 88.8311 57.5179 96.4904C53.6905 99.989 49.2487 102.749 44.4168 104.631C42.4828 105.351 40.4407 105.737 38.3775 105.772ZM44.9709 51.1068C39.3366 60.5886 35.2445 70.9053 32.8477 81.6712C30.7913 92.5114 32.7659 99.0303 35.6368 100.689C38.6118 102.411 45.8336 100.778 54.6024 93.1175C62.3751 85.7806 68.9358 77.2581 74.0403 67.8672C79.436 58.8884 83.4253 49.1364 85.8697 38.9502C88.3017 27.1432 86.2006 19.9139 83.2182 18.1959C82.1003 17.7682 80.9058 17.5769 79.7102 17.6338C78.5146 17.6908 77.3438 17.9949 76.2716 18.5268C72.1502 20.228 68.3611 22.6425 65.0781 25.6594C57.0721 33.027 50.2931 41.625 44.9969 51.1291L44.9709 51.1068Z" fill="#00D8FF"/>
<path d="M80.6113 105.821C75.5724 105.821 69.1725 102.771 62.5085 97.0408C53.9823 89.2788 46.7656 80.191 41.1368 70.1282C35.3025 60.3634 31.0667 49.7287 28.5897 38.6266C27.518 33.7418 27.3191 28.7058 28.0022 23.7516C28.1628 21.9144 28.7233 20.1346 29.6445 18.5369C30.5657 16.9393 31.8253 15.5625 33.3349 14.5031C38.8646 11.3013 48.247 14.5924 57.8228 23.0934C65.7832 30.6134 72.5431 39.3098 77.8669 48.8792C83.6981 58.4159 87.9784 68.8177 90.5478 79.6965C91.6676 84.7604 91.8403 89.9877 91.0573 95.1144C90.8717 97.0053 90.2791 98.8335 89.32 100.474C88.361 102.114 87.0583 103.527 85.5015 104.616C84.0065 105.442 82.3192 105.858 80.6113 105.821ZM44.9857 67.8895C50.3859 77.506 57.2796 86.2035 65.4091 93.6567C73.7726 100.852 80.4068 102.399 83.2591 100.722C86.2341 98.9931 88.4281 91.9349 86.1671 80.5146C83.6907 70.1277 79.5852 60.1984 74.0031 51.0956C68.9227 41.9368 62.4703 33.6095 54.8701 26.4031C45.8559 18.4004 38.5448 16.6116 35.5661 18.3371C34.6382 19.0921 33.8767 20.0309 33.3295 21.0946C32.7823 22.1583 32.4612 23.3238 32.3866 24.5177C31.7958 28.9359 31.9884 33.4237 32.9556 37.775C35.3388 48.3919 39.4012 58.5604 44.9894 67.8969L44.9857 67.8895Z" fill="#00D8FF"/>
</svg>
