<svg width="97" height="97" viewBox="0 0 97 97" fill="none" xmlns="http://www.w3.org/2000/svg">
<path d="M84.3809 17.1963C83.8651 15.4186 82.9792 13.7702 81.7813 12.3591C80.5834 10.9481 79.1006 9.80633 77.4303 9.00887C70.2704 5.18647 58.9093 5.07431 48.4879 8.73C38.7497 11.9906 29.7332 17.102 21.9341 23.7832C13.5921 31.4886 11.5127 38.7121 12.2675 42.5588C13.8528 50.6461 22.1918 56.3176 28.8939 60.8736C30.1609 61.7344 31.3856 62.568 32.4556 63.3471C28.1239 65.6508 19.5394 70.7554 17.0326 76.2238C16.226 77.7749 15.7754 79.4863 15.7136 81.2335C15.6517 82.9807 15.9801 84.7197 16.6749 86.3239C17.0518 87.2421 17.6148 88.0722 18.3286 88.7619C19.0423 89.4516 19.8911 89.986 20.8217 90.3313C22.2931 90.7354 23.8123 90.9393 25.3382 90.9375C28.4667 90.8818 31.5344 90.0643 34.2757 88.5558C37.017 87.0473 39.3492 84.8933 41.0704 82.2803C42.6189 79.8932 43.6517 77.2091 44.1027 74.3997C44.5537 71.5904 44.4129 68.7178 43.6894 65.9661C45.7402 65.6453 47.826 65.6147 49.8853 65.8751C51.5038 65.921 53.0958 66.2972 54.5637 66.9805C56.0316 67.6639 57.3443 68.6401 58.4213 69.8491C59.3164 70.9166 59.7744 72.2832 59.7035 73.6745C59.5679 74.3431 59.2883 74.9742 58.8842 75.5238C58.4801 76.0735 57.9611 76.5285 57.3634 76.8573C56.6541 77.2817 55.5871 77.9334 55.8356 79.2914C55.9448 79.8795 56.4358 81.2102 58.5456 80.8434C60.3324 80.35 61.9201 79.3099 63.0861 77.8689C64.2521 76.4278 64.9379 74.6581 65.0476 72.8076C65.0681 71.1714 64.7572 69.548 64.1336 68.0352C63.51 66.5223 62.5867 65.1514 61.4192 64.0048C59.6485 62.3224 57.554 61.0179 55.2632 60.1705C52.9724 59.3232 50.5331 58.9508 48.0938 59.076C45.3658 59.0381 42.6441 59.3477 39.9943 59.9975C37.9054 57.9746 35.6737 56.1045 33.3165 54.4018C28.127 50.4612 23.2224 46.7358 23.5104 41.4887C23.8893 34.629 30.9915 27.7511 44.62 21.046C56.7935 15.0562 66.6087 14.8713 71.7315 16.687C73.2479 17.0746 74.5557 18.0338 75.3811 19.3636C75.7978 20.61 75.9162 21.9367 75.7266 23.2371C75.5371 24.5375 75.045 25.7753 74.2899 26.8508C71.7888 30.6047 68.4585 33.7335 64.556 35.9956C60.6535 38.2578 56.2833 39.5927 51.7828 39.8973C50.0792 40.2705 48.3137 40.2581 46.6155 39.8611C44.9173 39.4641 43.3293 38.6925 41.9677 37.6027C41.125 36.6872 40.1701 35.6475 38.7121 36.4417C37.5703 37.0681 37.343 38.2695 38.0301 40.0458C38.7876 41.4603 39.8252 42.7058 41.0795 43.7063C42.3339 44.7069 43.7788 45.4417 45.3263 45.8658C52.5641 47.4623 60.1203 46.751 66.933 43.8319C77.6242 39.7397 87.1848 28.0633 84.3809 17.1963ZM36.0567 74.1898C35.8928 74.6745 35.6985 75.1484 35.4747 75.6085C34.8787 76.8068 34.1097 77.9109 33.1922 78.8853C32.3061 80.0544 31.1349 80.9768 29.7907 81.5643C28.4464 82.1518 26.974 82.3847 25.514 82.2409C25.3443 82.1439 25.2776 81.7983 25.2564 81.6558C25.3157 80.3436 25.6345 79.0561 26.1943 77.8677C26.7542 76.6794 27.5439 75.6138 28.518 74.7324C30.8908 72.4004 33.5907 70.4266 36.5326 68.873C36.7869 70.6583 36.624 72.4781 36.0567 74.1898Z" fill="#CD6799"/>
</svg>
