<svg width="113" height="113" viewBox="0 0 113 113" fill="none" xmlns="http://www.w3.org/2000/svg">
<path d="M70.625 82.3958C72.1317 83.9025 74.1751 84.75 76.308 84.75H78.8646C82.1133 84.75 84.75 82.1133 84.75 78.8646V77.6875C84.75 75.8144 84.0059 74.018 82.6814 72.6936C81.357 71.3691 79.5606 70.625 77.6875 70.625C75.8144 70.625 74.018 69.8809 72.6936 68.5564C71.3691 67.232 70.625 65.4356 70.625 63.5625V62.3854C70.625 59.1367 73.2617 56.5 76.5104 56.5H79.067C81.1999 56.5 83.2433 57.3475 84.75 58.8542M42.375 56.5H61.2083M51.7917 56.5V84.75" stroke="#007ACC" stroke-width="7" stroke-linecap="round" stroke-linejoin="round"/>
<path d="M98.875 89.4583V23.5417C98.875 21.0442 97.8829 18.649 96.1169 16.8831C94.351 15.1171 91.9558 14.125 89.4583 14.125H23.5417C21.0442 14.125 18.649 15.1171 16.8831 16.8831C15.1171 18.649 14.125 21.0442 14.125 23.5417V89.4583C14.125 91.9558 15.1171 94.351 16.8831 96.1169C18.649 97.8829 21.0442 98.875 23.5417 98.875H89.4583C91.9558 98.875 94.351 97.8829 96.1169 96.1169C97.8829 94.351 98.875 91.9558 98.875 89.4583Z" stroke="#007ACC" stroke-width="8" stroke-linecap="round" stroke-linejoin="round"/>
</svg>
