<svg width="191" height="48" viewBox="0 0 191 48" fill="none" xmlns="http://www.w3.org/2000/svg">
<path d="M61.5205 18.7379C61.5205 15.3202 58.197 11.6904 52.4463 11.6904C45.9882 11.6904 38.8939 16.4279 37.8096 25.8791C36.7019 35.4247 42.6412 39.6674 48.6278 39.6674C54.6144 39.6674 57.7493 37.334 60.9549 34.2229C58.197 30.758 54.6383 32.3609 53.9547 32.7144C53.2005 33.0913 52.2342 33.61 50.2543 33.61C47.9443 33.61 45.5875 32.573 45.5875 28.2597C60.3893 26.7985 61.5205 22.1552 61.5205 18.7379ZM54.1903 19.3034C54.0961 20.3639 53.6719 22.179 46.1769 23.1922C47.756 17.5829 50.7726 17.1587 52.1635 17.1587C53.4598 17.1587 54.2844 18.1719 54.1903 19.3034ZM29.1123 20.2225C29.1123 20.2225 25.9309 30.2158 25.6712 31.0407C25.577 30.1924 23.2437 12.256 23.2437 12.256C17.8226 12.256 14.9237 16.1213 13.3917 20.1991C13.3917 20.1991 9.52607 30.2158 9.1964 31.0642C9.17258 30.2865 8.607 20.317 8.607 20.317C8.27696 15.3198 3.70468 12.2798 0.00421143 12.2798L4.48235 39.4553C10.1627 39.4318 13.2265 35.59 14.8295 31.5122C14.8295 31.5122 18.2468 22.6739 18.3882 22.2731C18.412 22.65 20.8396 39.4553 20.8396 39.4553C26.5434 39.4553 29.6076 35.8489 31.2574 31.9129L39.2474 12.2798C33.6139 12.2798 30.6446 16.1213 29.1123 20.2225ZM82.45 11.6432C78.9382 11.6432 76.2513 13.5524 73.9886 16.3572V16.3338L76.0157 0C71.349 0 67.5544 4.05395 66.8236 10.0874L63.2879 39.2432C65.9752 39.2432 68.8269 38.4655 70.3588 36.4856C71.7259 38.253 73.7765 39.6674 76.8169 39.6674C84.6892 39.6674 90.0864 30.5224 90.0864 21.9431C90.0396 14.118 86.2446 11.6432 82.45 11.6432ZM81.7196 25.6677C80.8946 30.4521 78.2312 33.7049 75.6619 33.7049C73.0695 33.7049 71.9618 32.5496 71.9618 32.5496C72.4567 28.3542 72.7629 25.7853 73.7058 23.5699C74.6487 21.3544 76.8876 17.8188 79.221 17.8188C81.5071 17.8188 82.5445 20.8595 81.7196 25.6677ZM109.743 12.2791H104.252L104.275 11.9963C104.652 8.41377 105.501 6.52837 108.306 6.22214C110.215 6.03349 111.063 5.04335 111.275 3.95944C111.44 3.11107 111.959 0.164465 111.959 0.164465C100.928 0.0937674 97.4639 4.85507 96.5683 12.1142L96.5445 12.2794H96.4265C94.6353 12.2794 92.6557 14.3062 92.3257 16.8752L92.2077 17.818H95.8848L92.7971 43.3202L91.8543 47.8928C91.9722 47.8928 92.1136 47.9163 92.2312 47.9163C97.3932 47.7276 100.693 43.6502 101.423 37.7343L103.827 17.818H105.548C107.245 17.818 109.225 16.1213 109.579 13.2927L109.743 12.2791ZM138.31 11.808C131.969 11.808 125.983 16.4748 124.144 23.8047C122.306 31.1349 125.087 39.8084 134.421 39.8084C143.73 39.8084 149.104 30.7814 149.104 23.2625C149.104 15.7909 144.037 11.808 138.31 11.808ZM140.879 25.4311C140.549 28.7542 139.087 33.7983 135.081 33.7983C131.05 33.7983 131.616 27.9059 132.016 25.101C132.441 22.1079 134.114 17.8415 137.721 17.8415C140.949 17.8415 141.256 21.6833 140.879 25.4311ZM180.428 20.2221C180.428 20.2221 177.246 30.2154 176.987 31.0404C176.893 30.192 174.559 12.2556 174.559 12.2556C169.138 12.2556 166.239 16.1209 164.707 20.1987C164.707 20.1987 160.842 30.2154 160.512 31.0638C160.488 30.2861 159.923 20.3167 159.923 20.3167C159.593 15.3194 155.02 12.2794 151.32 12.2794L155.775 39.4549C161.455 39.4314 164.519 35.5896 166.121 31.5118C166.121 31.5118 169.539 22.6735 169.657 22.2727C169.68 22.6497 172.108 39.4549 172.108 39.4549C177.812 39.4549 180.876 35.8486 182.526 31.9126L190.516 12.2798C184.906 12.2798 181.936 16.1209 180.428 20.2221ZM114.929 0.164837L110.309 37.4281L109.366 42.0242C109.484 42.0242 109.625 42.048 109.743 42.048C114.716 41.9773 118.252 37.6167 118.912 32.125L121.575 10.7475C122.377 4.21879 118.488 0.165209 114.929 0.165209" fill="#4353FF"/>
</svg>
